<?xml version="1.0" encoding="UTF-8"?>
<svg id="_레이어_1" data-name="레이어 1" xmlns="http://www.w3.org/2000/svg" viewBox="0 0 83.38 83.38">
  <defs>
    <style>
      .cls-1 {
        fill: #1e1e21;
      }

      .cls-2 {
        fill: #f5fcff;
      }
    </style>
  </defs>
  <circle class="cls-1" cx="41.69" cy="41.69" r="41.19"/>
  <g>
    <path class="cls-2" d="M44.41,59.62h-14.56c-4.62,0-8.38-3.76-8.38-8.38v-15.59c0-.89.47-1.7,1.24-2.15l16.29-9.41c.77-.44,1.71-.44,2.48,0l12.57,7.26v-2.42c0-1.37,1.11-2.48,2.48-2.48s2.48,1.11,2.48,2.48v6.71c0,.89-.47,1.7-1.24,2.15-.77.44-1.71.44-2.48,0l-15.05-8.69-13.81,7.98v14.16c0,1.88,1.53,3.42,3.42,3.42h14.56c1.37,0,2.48,1.11,2.48,2.48s-1.11,2.48-2.48,2.48Z"/>
    <path class="cls-2" d="M60.28,59.62c-3.48,0-6.15-.55-8.2-1.42-2.09.89-4.71,1.42-7.95,1.42-1.37,0-2.48-1.11-2.48-2.48s1.11-2.48,2.48-2.48c1.18,0,2.23-.08,3.15-.22-1.65-2.37-1.89-4.92-1.89-6.17,0-4.5,2.8-7.65,6.8-7.65s6.8,3.14,6.8,7.65c0,2.06-.6,4.25-2,6.16.99.15,2.09.23,3.29.23,1.37,0,2.48,1.11,2.48,2.48s-1.11,2.48-2.48,2.48ZM52.18,45.59c-1.61,0-1.85,1.68-1.85,2.69,0,1.75.6,3.16,1.78,4.2,1.63-1.41,1.91-3.17,1.91-4.2s-.24-2.69-1.85-2.69Z"/>
    <path class="cls-2" d="M32.22,48.16c-1.37,0-2.48-1.11-2.48-2.48v-3.99c0-1.37,1.11-2.48,2.48-2.48s2.48,1.11,2.48,2.48v3.99c0,1.37-1.11,2.48-2.48,2.48Z"/>
    <path class="cls-2" d="M39.22,48.16c-1.37,0-2.48-1.11-2.48-2.48v-3.99c0-1.37,1.11-2.48,2.48-2.48s2.48,1.11,2.48,2.48v3.99c0,1.37-1.11,2.48-2.48,2.48Z"/>
  </g>
</svg>