<?xml version="1.0" encoding="UTF-8"?>
<svg id="_레이어_1" data-name="레이어 1" xmlns="http://www.w3.org/2000/svg" viewBox="0 0 69.41 69.41">
  <defs>
    <style>
      .cls-1 {
        fill: #1e1e21;
      }

      .cls-2 {
        fill: #f5fcff;
      }
    </style>
  </defs>
  <rect class="cls-2" y="0" width="69.41" height="69.41" rx="22.43" ry="22.43"/>
  <path class="cls-1" d="M46.99,0h-24.56C10.04,0,0,10.04,0,22.43v24.56C0,59.37,10.04,69.41,22.43,69.41h1.95-.04c.82.04,1.46-.16,1.65-.85v-7.27c-3.01.3-6.09.69-8.8-.94-2.98-1.78-3.13-5.27-5.43-7.54-.65-.64-3.16-1.74-2.45-2.73,4.37-1.3,5.73,2.51,7.98,4.98,2.34,2.57,5.87,2.61,8.89,1.25.27-1.66.74-3.42,2.06-4.54.07-.49-.06-.27-.34-.32-3.76-.73-6.75-1-9.93-3.49-5.42-4.26-6.98-14.21-3.91-20.2.4-.79,1.71-2.27,1.84-2.88.16-.79-.35-1.81-.41-2.64-.15-2.21.04-4.74,1.11-6.71.78-.47,3.63.49,4.54.84,1.23.47,4.41,2.61,5.2,2.65,1.02.04,3.43-.73,4.72-.88,4.3-.5,8.28.07,12.49.87,1.62-1.21,7.53-4.36,9.3-3.47,1.14.57,1.2,5.71,1.11,6.94-.05.74-.51,1.52-.44,2.22.05.56,1.51,2.26,1.9,3.04,2.16,4.25,1.86,10.5.08,14.85-2.43,5.92-8.19,8.44-14.29,8.87.37.87.99,1.37,1.38,2.31,1.65,3.92.61,9.64.7,13.85.15,1.37.9,1.81,1.86,1.8h-.02s1.86,0,1.86,0c12.39,0,22.43-10.04,22.43-22.43v-24.56C69.41,10.04,59.37,0,46.99,0Z"/>
</svg>