<?xml version="1.0" encoding="UTF-8"?>
<svg id="_레이어_1" data-name="레이어 1" xmlns="http://www.w3.org/2000/svg" viewBox="0 0 69.41 69.41">
  <defs>
    <style>
      .cls-1 {
        fill: #e9f7ff;
      }

      .cls-2 {
        fill: #1e1e21;
      }
    </style>
  </defs>
  <rect class="cls-1" y="0" width="69.41" height="69.41" rx="22.43" ry="22.43"/>
  <path class="cls-2" d="M25.99,68.57c-.63,2.29-6.22-.72-7.39-1.34C-13.23,50.38-1.64,1.5,33.94.89c37.78-.65,49.22,51.52,15.41,67.09-1.86.86-5.69,2.94-6.06-.37-.09-4.21.95-9.93-.7-13.85-.39-.94-1.01-1.44-1.38-2.31,6.1-.43,11.86-2.95,14.29-8.87,1.79-4.35,2.09-10.61-.08-14.85-.39-.77-1.85-2.48-1.9-3.04-.07-.7.39-1.48.44-2.22.09-1.23.02-6.37-1.11-6.94-1.77-.88-7.68,2.27-9.3,3.47-4.21-.8-8.19-1.37-12.49-.87-1.29.15-3.7.92-4.73.88-.79-.03-3.97-2.17-5.2-2.65-.91-.35-3.76-1.31-4.54-.84-1.07,1.97-1.27,4.5-1.11,6.71.06.83.57,1.85.41,2.64-.12.61-1.43,2.09-1.84,2.88-3.08,5.99-1.52,15.94,3.91,20.2,3.18,2.5,6.17,2.77,9.93,3.49.28.05.4-.17.34.32-1.32,1.13-1.79,2.88-2.06,4.54-3.02,1.36-6.55,1.31-8.89-1.25s-3.61-6.28-7.98-4.98c-.71.98,1.8,2.08,2.45,2.73,2.31,2.27,2.46,5.76,5.43,7.54,2.71,1.62,5.79,1.24,8.8.94v7.27Z"/>
  <path class="cls-2" d="M18.6,67.23C-13.23,50.38-1.64,1.5,33.94.89c37.78-.65,49.22,51.52,15.41,67.09l-4.22,1.44h1.86c12.39,0,22.43-10.04,22.43-22.43v-24.56C69.41,10.04,59.37,0,46.99,0h-24.56C10.04,0,0,10.04,0,22.43v24.56C0,59.37,10.04,69.41,22.43,69.41h1.95l-5.78-2.19Z"/>
</svg>