<?xml version="1.0" encoding="UTF-8"?>
<svg id="_레이어_1" data-name="레이어 1" xmlns="http://www.w3.org/2000/svg" viewBox="0 0 273.79 130.12">
  <defs>
    <style>
      .cls-1 {
        fill: #1e1e21;
      }

      .cls-2 {
        fill: #ffcb00;
      }
    </style>
  </defs>
  <path class="cls-1" d="M199.13,94.76c4.95-.93,9-2.13,12.14-3.61l.03,16.55c-2.95,1.57-7.07,2.79-12.35,3.68-5.28.88-10.59,1.33-15.93,1.33l-40.43.06-.15-97.66,60.57-.09.03,16.55-42.29.06.1,64.56,23.43-.04c4.95,0,9.9-.47,14.86-1.4ZM235.37,69.74l.07,48.28-18,.03-.16-105.94,18-.03.06,40,13-.02.03,17.66-13,.02Z"/>
  <polygon class="cls-1" points="87.1 77.28 124.39 77.22 124.32 32.25 106.32 32.28 106.36 60.28 49.5 60.37 49.47 36.85 31.32 36.88 31.39 77.36 68.81 77.31 68.84 97.03 25.41 97.1 25.44 114.2 130.58 114.04 130.56 96.94 87.13 97 87.1 77.28"/>
  <path class="cls-2" d="M120.8,55.06l-8.57-8.7c-1.13-1.14-2.91-1.16-4.05-.03l-8.96,8.85c-.83.82-2.2.21-2.2-.99l-.05-30.29c0-1.87,1.45-3.4,3.23-3.4l19.51-.03c1.79,0,3.24,1.51,3.24,3.39l.05,30.22c0,1.21-1.39,1.83-2.21.98Z"/>
  <path d="M98.34,56.9c-.34,0-.68-.07-1.01-.2-1-.42-1.65-1.4-1.65-2.5l-.05-30.29c0-2.61,2.05-4.74,4.57-4.74l19.51-.03c2.53,0,4.58,2.12,4.59,4.73l.05,30.22c0,1.11-.65,2.1-1.66,2.52-.99.41-2.09.18-2.85-.59l-8.57-8.7c-.29-.3-.67-.46-1.07-.47-.41,0-.78.16-1.08.45l-8.96,8.85c-.51.5-1.16.76-1.82.76ZM110.18,44.15s.02,0,.04,0c1.12,0,2.17.46,2.97,1.26l8.57,8.7-.95.94.96-.93-.13-30.27c0-1.13-.86-2.05-1.9-2.05l-19.51.03c-1.05,0-1.9.92-1.9,2.06l.05,30.29,8.88-8.81c.8-.79,1.84-1.22,2.94-1.22Z"/>
  <polygon class="cls-1" points="49.3 33.14 106.24 33.03 106.24 33.04 124.26 33 124.23 15.9 31.09 16.07 31.13 33.18 49.3 33.14 49.3 33.14"/>
</svg>