<?xml version="1.0" encoding="UTF-8"?>
<svg id="_레이어_1" data-name="레이어 1" xmlns="http://www.w3.org/2000/svg" viewBox="0 0 83.38 83.38">
  <defs>
    <style>
      .cls-1 {
        fill: #1e1e21;
      }

      .cls-2 {
        fill: #ffcb00;
      }

      .cls-3 {
        fill: none;
        stroke: #1e1e21;
        stroke-miterlimit: 10;
      }
    </style>
  </defs>
  <circle class="cls-3" cx="41.69" cy="41.69" r="41.19"/>
  <path class="cls-1" d="M56.6,48.8c1.19-.22,2.15-.51,2.91-.86v3.97c-.7.38-1.69.67-2.95.88-1.27.21-2.54.32-3.82.32h-9.68s-.04-23.38-.04-23.38l14.51-.02v3.97s-10.12.02-10.12.02l.02,15.46h5.61c1.19-.01,2.37-.12,3.56-.34ZM65.28,42.81l.02,11.56h-4.31s-.04-25.37-.04-25.37h4.31s.01,9.58.01,9.58h3.11s0,4.22,0,4.22h-3.11Z"/>
  <polygon class="cls-1" points="29.76 44.61 38.69 44.6 38.68 33.83 34.36 33.84 34.37 40.54 20.75 40.56 20.75 34.93 16.4 34.94 16.42 44.63 25.38 44.62 25.39 49.35 14.99 49.36 14.99 53.46 40.18 53.42 40.17 49.32 29.77 49.34 29.76 44.61"/>
  <g>
    <path class="cls-2" d="M37.83,39.29l-2.05-2.08c-.27-.27-.7-.28-.97,0l-2.15,2.12c-.2.2-.53.05-.53-.24v-7.26c-.01-.45.34-.81.76-.81h4.67c.43,0,.78.36.78.8v7.24c.01.29-.32.44-.52.24Z"/>
    <path d="M32.45,39.73c-.08,0-.16-.02-.24-.05-.24-.1-.39-.34-.39-.6v-7.26c-.01-.63.48-1.13,1.08-1.14h4.67c.6,0,1.1.5,1.1,1.13v7.24c.01.27-.14.5-.39.6-.24.1-.5.04-.68-.14l-2.05-2.08c-.07-.07-.16-.11-.26-.11-.1,0-.19.04-.26.11l-2.15,2.12c-.12.12-.28.18-.44.18ZM35.29,36.68s0,0,0,0c.27,0,.52.11.71.3l2.05,2.08-.23.23.23-.22-.03-7.25c0-.27-.2-.49-.46-.49h-4.67c-.25,0-.45.23-.45.5v7.26s2.14-2.11,2.14-2.11c.19-.19.44-.29.71-.29Z"/>
  </g>
  <polygon class="cls-1" points="20.71 34.04 34.34 34.02 34.34 34.02 38.66 34.01 38.65 29.91 16.35 29.95 16.35 34.05 20.71 34.04 20.71 34.04"/>
</svg>