<?xml version="1.0" encoding="UTF-8"?>
<svg id="_레이어_1" data-name="레이어 1" xmlns="http://www.w3.org/2000/svg" viewBox="0 0 931.05 651.23">
  <defs>
    <style>
      .cls-1 {
        fill: #f5fcff;
      }
    </style>
  </defs>
  <path class="cls-1" d="M203.38,340.84c11.37-3.53,23.23-7.78,35.24-12.62,11.96-4.82,22.95-9.63,32.68-14.29,10.67-4.36,22.33-10.64,34.68-18.68,12.29-7.99,24.38-17.01,35.94-26.8,11.55-9.79,21.87-19.72,30.69-29.51,9.07-10.07,15.35-19.59,18.65-28.24,4.51-11.48,6.28-24.43,5.27-38.49-1.03-14.13-6.08-28.31-15.02-42.14-8.92-13.77-23.16-26.42-42.33-37.61l-.21-.11c-17.55-9.17-36.45-14.73-56.17-16.52-19.6-1.79-39-.48-57.64,3.89l-.23.05-53.66,18.08-.48.19c-6.18,2.82-9.28,8.18-8.72,15.11.47,5.95,3.05,11.54,7.68,16.62l1.49,1.63h2.21c6.39,0,8.61,2.33,9.72,4.07,2.35,3.71,1.93,6.08,1.36,7.56-11.92,25.77-21.51,47.49-28.49,64.54-6.84,16.74-13.67,33.13-20.3,48.73l-.06.14c-2.75,7.06-7.03,17.47-12.73,30.94-5.76,13.62-11.92,28.39-18.31,43.89-6.41,15.54-12.09,29.74-16.89,42.22-4.82,12.51-7.96,21.35-9.6,26.99-2.01,4.07-4.85,10.61-8.66,19.97-3.92,9.6-6.72,19.22-8.33,28.62-6.35,14.54-10.94,24.98-13.67,31.03-3.47,7.68-4.07,13.15-1.88,17.21,1.6,2.97,4.83,6.87,9.87,11.91l.5.44c7.45,5.69,16.29,8.58,26.27,8.58,4.14,0,16.73,0,20.32-8.95l.04-.1c12.35-32.8,23.4-63.33,32.86-90.74,6.29-18.24,11.39-33.64,15.25-46.02l6.78,16.12c4.25,10.11,10.66,20.31,19.14,30.39,21.38,24.5,40.91,44.22,58.05,58.62,17.14,14.41,34.53,26.86,51.69,37.01,9.56,6.22,18.47,9.6,26.48,10.04,1.91.1,3.67.15,5.31.15,5.15,0,9-.51,11.9-1.55,3.2-.97,5.71-4.18,8.58-10.95,2.26-5.37,3.94-11.11,4.97-17.07,1.28-7.48.02-12.87-3.76-16.01l-.44-.37-.52-.26c-10.53-5.27-22.57-13.11-35.78-23.3-13.38-10.31-26.14-21.24-37.94-32.48-11.78-11.21-21.24-20.95-28.15-29.01-8.34-9.47-16.71-20.44-24.87-32.59-4.26-6.34-8.26-12.88-11.98-19.58,1.01-.2,1.99-.43,2.95-.67l.27-.08ZM305.82,227.13c-8.82,7.51-18.73,14.46-29.47,20.68-10.85,6.28-21.94,12.17-32.95,17.48-11.77,4.94-23.11,9.49-33.71,13.54-8.52,3.25-16.5,5.42-23.79,6.46.05-.23.11-.48.19-.75.59-2.15,2.63-7.42,8.96-20.33,5.23-10.65,13.45-27.39,24.68-50.24l.17-.38c4.2-10.69,8.55-20.85,12.94-30.2,4.4-9.38,8.19-17.26,11.27-23.41,4.06-8.12,4.96-10.87,5.13-12.49,1.65-6.43,3.9-10.88,6.68-13.22,2.56-2.15,7.41-2.96,14.02-2.33,7.81.75,19.44,3.04,34.56,6.81,4.15,1.31,8.37,4.18,12.56,8.52,4.46,4.64,8.17,9.9,11.04,15.61,2.73,5.48,4.12,10.39,4.12,14.61v.38c.71,9.12-1.25,17.48-5.99,25.55-4.91,8.37-11.78,16.34-20.42,23.7Z"/>
  <path class="cls-1" d="M444.37,285.16c-7.7-6.33-14.74-8.64-20.95-6.89-11.28.95-13.15,8.05-13.35,11.78-.39,1.43-1.39,4.86-3.86,12.9-2.32,7.53-5.23,16.47-8.67,26.58-3.44,10.12-6.95,20.27-10.44,30.15-3.41,9.67-6.5,17.67-9.16,23.77l-.16.42c-1.15,3.45-2.34,7.21-3.53,11.18-1.48,4.94-1.86,8.27-1.23,10.76.09.38-.24,1.06-.38,1.31-1.27,2.27-1.95,5.08-2.07,8.55-1.57,3.63-2.53,8.38-2.91,14.47-.42,6.46.1,13.09,1.56,19.69,1.54,7.06,4.21,12.55,7.93,16.31,5.74,6.38,12.47,9.62,19.8,9.62,2.68,0,5.44-.44,8.26-1.31,10.35-3.21,17.59-13.57,21.52-30.77,2.04-3.52,3.63-7.99,4.83-13.61,1.16-5.4,2.15-10.88,2.96-16.29.93-6.32,1.66-8.73,2.02-9.61l.14-.4c1.5-4.88,3.32-10.15,5.41-15.67,2.04-5.4,3.83-9.64,5.31-12.6l.34-.67.12-.74c.73-4.41,2.15-10.16,4.22-17.11,2.02-6.83,3.77-11.73,5.2-14.58l.07-.15c4.49-9.79,7.08-17.25,7.95-22.81.97-6.35-.57-11.89-4.47-16.06-4.11-6.45-9.65-12.56-16.46-18.19Z"/>
  <path class="cls-1" d="M491.02,220.67c7.44-9.11,11.97-18.06,13.48-26.62,1.53-8.75.32-17.38-3.6-25.65l-.28-.51c-4.42-7.06-11.35-12.61-20.6-16.48-9.58-4.01-17.48-4.19-23.51-.54-2.45.88-4.62,2.78-6.45,5.66-1.34,2.1-2.39,3.72-3.14,4.86l-.12.19c-3.6,5.99-6.93,12.66-9.91,19.82-2.65,6.37-5.75,11.53-9.2,15.35-1.87,1.96-2.51,4.9-2.22,10.08.23,4.13,1.56,8.78,3.96,13.79,2.48,5.2,6.23,9.64,11.16,13.22l.03.02c4.36,3.12,9.57,4.68,15.57,4.68,3.12,0,6.45-.42,9.99-1.27,10-2.38,18.36-7.96,24.85-16.59Z"/>
  <path class="cls-1" d="M802.97,415.82l-.42-.21-.45-.13c-2.5-.71-5.22-1.71-8.08-2.97-2.74-1.19-3.84-2.14-4.25-2.61-.2-.42-.84-2.03-1.85-6.9-.92-4.42-1.68-9.7-2.24-15.71-.61-6.47-1.07-11.89-1.43-16.57,0-12.53-.72-22.73-2.12-30.34-1.52-8.24-4.95-14.92-10.19-19.88-11.85-15.51-25.41-14.83-34.73-11.51-12,4.27-27.52,13.7-47.45,28.84-3.78,2.65-7.61,5.61-11.38,8.79,1.1-4.04,1.91-7.07,2.33-8.75l.05-.24c.75-3.76,1.79-7.91,3.09-12.36,1.63-5.62,1.32-11.9-.93-18.66l-.1-.28c-1.83-4.56-5.73-9.69-11.91-15.68-6.32-6.1-13.35-9.87-20.9-11.2l-1.19-.21-1.15.36c-5.48,1.69-12.11,4.89-20.27,9.78-7.84,4.7-15.91,10.18-23.97,16.27-8.01,6.06-15.6,12.07-22.47,17.8-4.01,3.21-8.3,6.9-12.73,10.95-1.85,1.69-3.58,3.22-5.19,4.6,1.75-4.08,4.48-10.4,8.21-18.95l6.43-15.79.05-.13c1.2-3.21,2.74-7.06,4.58-11.45,2.22-5.34,3.13-11.37,2.7-17.92-.44-6.94-2.82-14.14-7.07-21.39-4.66-7.91-13.22-12.62-25.46-14.01-3.59-.9-7.96-.57-13.36,1-5.41,1.58-10.29,4.42-14.52,8.43-4.7,4.44-7.08,10.36-7.08,17.57l.04.61c.38,3.09.76,7.03,1.14,11.69.32,4.07-.35,8.49-1.98,13.14-3.57,7.94-6.33,14.41-8.43,19.78-2.23,5.67-4.05,10.46-5.56,14.64-1.58,4.33-3.06,8.7-4.42,12.97-1.39,4.35-2.88,9.51-4.43,15.34l-.06.23c-5.4,25.07-9.13,43.61-11.08,55.1-2.12,12.49-1.85,20.87.88,26.29,2.28,6.99,6.63,12.96,12.93,17.73,6.39,4.86,13.67,7.55,21.63,7.98h.27c2.91,0,5.38-1.54,13.17-11.13,4.97-6.12,10.81-13.13,17.35-20.82,6.43-7.57,12.16-13.68,17.01-18.15l.25-.24c6.66-7.05,12.93-13.82,18.65-20.11,5.74-6.31,9.78-10.65,12.03-12.9,2.43-2.43,4.99-5.29,7.61-8.51,1.49-1.83,2.38-2.55,2.75-2.8h2.15l1.48-2.23c.88-1.32,2.94-3.78,7.82-7.99,1.17-1.01,2.19-1.82,3.06-2.46-.08.22-.17.46-.26.7-1.7,4.52-4.87,11.84-9.44,21.73l-16.43,45.71-.1.31c-1.14,3.95-.44,8.49,2.07,13.49,2.21,4.43,4.95,8.07,8.14,10.82l5.74,5.17c5.81,5.29,12.85,6.17,20.35,2.55,6.09-2.94,12.21-7.46,18.21-13.46,5.47-5.47,10.54-10.15,15.06-13.93l.43-.41c12.96-13.73,24.21-24.98,33.43-33.43,9.07-8.31,16.49-14.41,22.05-18.11,2.98-1.98,4.98-3.08,6.27-3.69-.06.24-.12.5-.2.79-1.48,5.28-2.4,13.75-2.8,25.89-.41,14.36,1.83,26.33,6.66,35.56,4.78,9.16,10.46,16.19,16.87,20.88,6.43,4.72,11,7.37,14.37,8.33l.53.15.55.03c2.29.14,4.58.2,6.86.2,4.56,0,9.08-.27,13.5-.81,7.05-.85,13.87-3.23,20.35-7.11,7.77-4.85,11.49-12.18,10.76-21.2-.91-11.19-6.89-16.44-11.75-18.88Z"/>
  <path class="cls-1" d="M911.01,384.67l-.33-.21-.36-.15c-8.14-3.42-14.27-4.96-18.76-4.74-4.62.25-10.8,2.78-19.44,7.97l-.27.17c-12.28,8.47-19.66,17.02-22.55,26.12-3.12,9.83-.07,19.44,9.07,28.58l.3.3.35.25c7.36,5.2,14.33,7.95,20.71,8.17.44.02.88.02,1.34.02,5.79,0,12.6-1.33,20.76-4.05l.34-.11.32-.16c16.94-8.47,26.45-18.61,28.26-30.13,1.88-12-4.76-22.78-19.74-32.03Z"/>
</svg>