<?xml version="1.0" encoding="UTF-8"?>
<svg id="_레이어_1" data-name="레이어 1" xmlns="http://www.w3.org/2000/svg" viewBox="0 0 65 65">
  <defs>
    <style>
      .cls-1 {
        fill: #2c50ff;
      }
    </style>
  </defs>
  <path class="cls-1" d="M17.74,41.99c.95-.38,1.84-.77,2.61-1.14.86-.35,1.81-.86,2.81-1.51.99-.64,1.96-1.37,2.89-2.16.93-.79,1.76-1.59,2.47-2.38.74-.82,1.25-1.59,1.52-2.3.37-.94.51-1.99.43-3.13-.08-1.15-.49-2.3-1.22-3.43-.72-1.12-1.88-2.15-3.45-3.06-1.42-.74-2.95-1.19-4.55-1.34-1.58-.14-3.15-.04-4.7.33l-4.34,1.46c-.54.25-.81.71-.76,1.31.04.5.26.97.64,1.39l.15.16h.22c.46,0,.62.16.7.28.17.26.14.42.11.5-.96,2.07-1.73,3.82-2.29,5.2-.56,1.37-1.1,2.67-1.63,3.92-.22.56-.56,1.38-1.02,2.48-.47,1.11-.96,2.28-1.47,3.52-.51,1.25-.97,2.38-1.36,3.39-.4,1.04-.66,1.76-.75,2.12-.16.33-.4.88-.71,1.64-.32.78-.54,1.55-.67,2.31-.51,1.18-.88,2-1.09,2.48-.18.41-.4,1-.15,1.47.13.25.39.56.86,1.02.61.47,1.34.71,2.17.71.35,0,1.41,0,1.72-.78h0c.99-2.65,1.88-5.1,2.64-7.3.46-1.34.85-2.49,1.14-3.44l.44,1.04c.35.82.87,1.65,1.55,2.47,1.72,1.97,3.29,3.56,4.67,4.72,1.38,1.16,2.78,2.17,4.15,2.97.78.51,1.52.79,2.18.83.15,0,.3.01.43.01.42,0,.74-.04.99-.13.29-.09.51-.36.75-.93.18-.44.32-.91.4-1.39.11-.64,0-1.1-.34-1.38l-.1-.06c-.84-.42-1.8-1.04-2.86-1.86-1.07-.82-2.09-1.7-3.04-2.6-.94-.9-1.7-1.68-2.25-2.32-.67-.76-1.34-1.63-1.99-2.61-.32-.47-.61-.95-.89-1.45.05,0,.09-.02.14-.03.92-.29,1.88-.63,2.84-1.02ZM18.23,28.44c.33-.66.4-.89.42-1.03.16-.61.36-.88.5-1,.13-.11.42-.22,1.05-.16.62.06,1.56.24,2.75.54.32.1.65.32.98.66.35.37.64.78.87,1.23.21.42.32.8.32,1.17.05.71-.1,1.36-.47,1.99-.39.66-.93,1.29-1.62,1.88-.71.6-1.5,1.16-2.35,1.65-.88.51-1.77.98-2.62,1.39-.96.4-1.86.77-2.71,1.09-.62.24-1.2.4-1.74.49.07-.21.25-.64.69-1.53l2-4.07c.33-.85.68-1.67,1.04-2.42.35-.76.66-1.38.9-1.88Z"/>
  <path class="cls-1" d="M32.93,33.3c.21.43.52.8.93,1.1h0c.37.26.8.4,1.31.4.26,0,.53-.04.82-.1.83-.2,1.52-.66,2.04-1.36.61-.75.98-1.48,1.11-2.19.13-.72.03-1.43-.33-2.17-.37-.58-.94-1.04-1.7-1.36-.79-.33-1.46-.35-1.97-.04-.21.08-.4.24-.56.49-.11.17-.19.3-.26.41-.29.49-.56,1.03-.8,1.6-.21.5-.45.91-.71,1.19-.22.22-.23.56-.22.89.02.35.13.72.33,1.14Z"/>
  <path class="cls-1" d="M34.28,38.37c-.64-.53-1.23-.72-1.76-.58-.97.09-1.13.73-1.15,1.03-.04.15-.14.49-.31,1.02-.19.6-.42,1.31-.69,2.13-.28.82-.56,1.63-.84,2.42-.27.78-.52,1.42-.75,1.94-.09.28-.19.58-.28.9-.12.41-.15.7-.12.95-.11.19-.17.43-.18.71-.13.3-.2.69-.23,1.18-.03.53,0,1.07.13,1.61.13.58.35,1.04.66,1.36.48.53,1.04.8,1.66.8.23,0,.46-.04.7-.11.86-.27,1.47-1.12,1.79-2.53.17-.29.29-.65.39-1.11.1-.44.17-.88.24-1.31.08-.51.13-.7.17-.79.12-.39.27-.81.43-1.25.16-.43.3-.76.42-1l.05-.14c.06-.35.17-.81.34-1.36.2-.67.33-1,.42-1.17.36-.79.58-1.4.65-1.86.1-.67-.14-1.11-.38-1.36-.34-.52-.78-1.02-1.34-1.47Z"/>
  <path class="cls-1" d="M62.96,48.81c-.2-.06-.41-.13-.64-.23-.23-.1-.29-.16-.29-.16-.01-.03-.06-.15-.14-.53-.07-.35-.13-.77-.18-1.25-.05-.49-.09-.94-.11-1.31,0-1.02-.06-1.85-.17-2.47-.13-.7-.42-1.26-.81-1.61-.99-1.32-2.14-1.27-2.92-.99-.97.35-2.23,1.11-3.83,2.32-.23.16-.46.33-.69.52.05-.19.09-.33.11-.43.06-.3.14-.63.25-.98.14-.47.11-.99-.09-1.58-.15-.38-.47-.8-.98-1.29-.52-.5-1.1-.81-1.73-.92l-.12-.02-.11.04c-.45.14-.99.4-1.65.79-.63.38-1.28.82-1.93,1.31-.64.49-1.25.97-1.81,1.43-.32.26-.66.55-1.03.88-.03.03-.06.05-.08.08l1.01-2.4c.09-.25.21-.55.37-.92.18-.44.26-.94.22-1.48-.04-.57-.23-1.17-.58-1.76-.39-.67-1.12-1.06-2.07-1.16-.31-.09-.69-.06-1.16.07-.45.13-.86.37-1.21.7-.4.38-.6.87-.6,1.54.03.24.06.55.09.93.02.32-.03.66-.14.99-.28.63-.51,1.17-.69,1.61-.17.44-.32.83-.45,1.18-.13.35-.25.7-.36,1.05-.11.35-.23.76-.36,1.26-.43,2.01-.73,3.5-.89,4.43-.18,1.05-.15,1.76.06,2.12.19.6.55,1.1,1.08,1.51.53.4,1.13.63,1.82.66.3,0,.54-.2,1.13-.93.4-.5.87-1.05,1.39-1.67.51-.6.97-1.09,1.38-1.47.53-.56,1.03-1.1,1.5-1.62.46-.5.78-.85.96-1.03.2-.2.4-.43.62-.69.09-.11.15-.16.18-.19h.19l.15-.22c.06-.1.21-.27.56-.58-.15.36-.36.85-.66,1.49l-1.31,3.67c-.1.34-.04.73.17,1.15.18.37.41.67.67.89l.46.42c.49.45,1.11.52,1.74.22.5-.24,1-.61,1.49-1.1.44-.44.84-.81,1.25-1.15,1.04-1.1,1.94-2,2.68-2.68.73-.67,1.32-1.15,1.76-1.45.12-.08.22-.14.3-.19-.1.43-.16,1.07-.19,1.95-.03,1.17.15,2.15.55,2.9.39.75.86,1.32,1.38,1.71s.9.6,1.19.68l.11.02c.19.01.37.02.56.02.37,0,.74-.02,1.09-.07.58-.07,1.14-.26,1.67-.58.66-.41.97-1.03.91-1.79-.08-.94-.58-1.39-1.09-1.63Z"/>
</svg>