<?xml version="1.0" encoding="UTF-8"?>
<svg id="_레이어_1" data-name="레이어 1" xmlns="http://www.w3.org/2000/svg" viewBox="0 0 299.97 201.72">
  <defs>
    <style>
      .cls-1 {
        fill: #2c50ff;
      }
    </style>
  </defs>
  <path class="cls-1" d="M101.56,150.1l-.18-.15-.21-.1c-3.24-1.62-6.94-4.03-11.01-7.17-4.13-3.19-8.08-6.56-11.72-10.04-3.64-3.46-6.56-6.47-8.7-8.96-2.57-2.92-5.15-6.3-7.67-10.05-1.18-1.75-2.31-3.6-3.39-5.51.11-.03.22-.05.32-.08l.11-.03c3.53-1.1,7.22-2.42,10.96-3.92,3.71-1.5,7.13-2.99,10.14-4.44,3.33-1.36,6.96-3.32,10.81-5.82,3.83-2.49,7.59-5.3,11.18-8.34,3.59-3.04,6.81-6.14,9.55-9.19,2.85-3.16,4.82-6.16,5.86-8.89,1.42-3.62,1.98-7.7,1.66-12.12h0c-.32-4.46-1.91-8.92-4.73-13.27-2.8-4.33-7.27-8.3-13.35-11.85-5.49-2.87-11.41-4.61-17.57-5.17-6.13-.55-12.18-.15-18.01,1.21l-16.74,5.63-.19.08c-2.1.96-3.15,2.78-2.96,5.13.15,1.95.99,3.77,2.49,5.42l.6.65h.88c1.76,0,2.34.6,2.63,1.05.61.96.54,1.53.39,1.93-3.69,7.99-6.67,14.72-8.83,20.01-2.12,5.18-4.23,10.26-6.31,15.15-.85,2.18-2.17,5.4-3.94,9.58-1.8,4.27-3.69,8.8-5.68,13.61-1.99,4.83-3.75,9.23-5.24,13.09-1.48,3.86-2.46,6.59-2.98,8.36-.62,1.27-1.5,3.29-2.68,6.18-1.22,2.99-2.09,5.98-2.6,8.91-1.99,4.55-3.39,7.74-4.21,9.56-.72,1.58-1.56,3.9-.57,5.73.52.97,1.52,2.18,3.14,3.8l.2.17c2.39,1.83,5.22,2.75,8.41,2.75,1.36,0,5.49,0,6.73-3.1,3.83-10.17,7.26-19.63,10.19-28.13,1.76-5.09,3.21-9.47,4.36-13.1l1.62,3.86c1.33,3.18,3.35,6.38,6.01,9.54,6.64,7.61,12.71,13.74,18.04,18.22,5.34,4.49,10.76,8.37,16.03,11.48,3.04,1.99,5.89,3.06,8.46,3.2.59.03,1.14.05,1.66.05,1.65,0,2.89-.16,3.84-.5,1.13-.35,1.99-1.42,2.93-3.65.71-1.7,1.24-3.51,1.57-5.39.43-2.49-.02-4.3-1.32-5.38ZM71.2,83.75c-3.65,1.53-7.16,2.94-10.42,4.19-2.34.89-4.54,1.52-6.58,1.87.3-.85,1-2.51,2.61-5.78l7.65-15.57.07-.15c1.29-3.3,2.64-6.44,4-9.33,1.36-2.91,2.54-5.35,3.49-7.24,1.26-2.53,1.57-3.43,1.63-3.99.61-2.34,1.37-3.37,1.92-3.83.69-.58,2.11-.8,4.01-.62,2.4.23,5.98.94,10.63,2.09,1.21.39,2.45,1.23,3.69,2.52,1.35,1.41,2.48,3,3.34,4.73.82,1.63,1.23,3.09,1.23,4.33v.15c.21,2.73-.37,5.23-1.79,7.65h0c-1.5,2.55-3.59,4.98-6.23,7.23-2.71,2.31-5.76,4.45-9.07,6.36-3.34,1.93-6.76,3.75-10.17,5.4Z"/>
  <path class="cls-1" d="M133.95,89.98h0c-2.49-2.05-4.8-2.8-6.86-2.23-3.8.34-4.42,2.86-4.5,4.02-.12.42-.42,1.45-1.18,3.94-.71,2.31-1.61,5.08-2.68,8.22-1.08,3.17-2.16,6.29-3.23,9.34-1.05,2.98-2,5.45-2.83,7.34l-.06.17c-.37,1.1-.73,2.26-1.1,3.48-.48,1.61-.6,2.72-.39,3.49,0,0,0,.06-.07.16-.42.75-.65,1.66-.69,2.77-.49,1.16-.79,2.66-.91,4.55-.13,2.04.03,4.14.49,6.23.49,2.27,1.36,4.04,2.57,5.27,1.87,2.07,4.06,3.13,6.45,3.13.88,0,1.78-.14,2.71-.43,3.36-1.04,5.7-4.34,6.96-9.8.64-1.12,1.14-2.53,1.51-4.29.36-1.68.67-3.38.92-5.08.29-1.98.51-2.67.6-2.88l.06-.16c.46-1.49,1.02-3.12,1.67-4.83.63-1.66,1.18-2.96,1.63-3.86l.13-.27.05-.3c.22-1.35.66-3.11,1.29-5.25.77-2.6,1.29-3.85,1.61-4.51,1.41-3.07,2.22-5.42,2.5-7.19.4-2.6-.54-4.31-1.47-5.32-1.3-2.03-3.04-3.95-5.17-5.71Z"/>
  <path class="cls-1" d="M128.62,70.51c.8,1.68,2.01,3.12,3.61,4.28,1.43,1.02,3.13,1.53,5.08,1.53,1,0,2.07-.13,3.21-.41,3.21-.77,5.9-2.56,7.92-5.27,2.37-2.89,3.81-5.75,4.29-8.48h0c.49-2.81.1-5.57-1.15-8.22l-.11-.21c-1.42-2.27-3.64-4.05-6.59-5.28-3.09-1.29-5.66-1.35-7.65-.16-.84.31-1.57.96-2.18,1.92-.41.65-.74,1.15-1.02,1.58-1.13,1.88-2.17,3.96-3.1,6.2-.8,1.92-1.73,3.48-2.76,4.62-.83.88-.88,2.18-.81,3.46.07,1.34.5,2.83,1.27,4.44Z"/>
  <path class="cls-1" d="M244.99,130.41l-.35-.14c-.76-.21-1.58-.52-2.45-.9-.7-.3-1-.54-1.12-.65-.07-.18-.25-.69-.51-1.97-.28-1.35-.51-2.97-.69-4.82-.18-1.88-.32-3.58-.44-5.11,0-3.9-.23-7.09-.66-9.47-.49-2.63-1.59-4.78-3.27-6.38-3.83-4.99-8.23-4.77-11.25-3.69-3.77,1.34-8.63,4.29-14.79,8.98-.82.58-1.66,1.2-2.49,1.87.17-.62.29-1.1.38-1.46.23-1.15.55-2.43.95-3.79.53-1.83.43-3.87-.29-6.05l-.04-.11c-.59-1.47-1.83-3.11-3.8-5.01-2.03-1.95-4.28-3.16-6.71-3.59l-.47-.08-.46.14c-1.74.53-3.82,1.54-6.38,3.08-2.45,1.47-4.96,3.17-7.47,5.07-2.49,1.88-4.85,3.75-6.97,5.52-1.25,1-2.59,2.15-3.97,3.41-.03.03-.06.06-.09.08.47-1.1,1.06-2.45,1.76-4.06l2-4.91c.37-.99.85-2.18,1.41-3.54.71-1.72,1.01-3.66.87-5.75-.14-2.22-.9-4.52-2.25-6.83-1.52-2.57-4.27-4.11-8.2-4.56-1.18-.29-2.61-.18-4.35.32-1.74.51-3.32,1.42-4.68,2.72-1.55,1.47-2.34,3.41-2.34,5.77l.02.24c.12.95.23,2.16.35,3.6.09,1.19-.1,2.49-.58,3.87-1.11,2.46-1.96,4.47-2.61,6.13-.67,1.7-1.25,3.22-1.73,4.55-.49,1.36-.96,2.71-1.38,4.04-.43,1.35-.89,2.95-1.4,4.87-1.68,7.78-2.83,13.53-3.44,17.1-.67,3.95-.58,6.62.3,8.39.74,2.24,2.14,4.15,4.15,5.68,2.06,1.56,4.39,2.43,6.95,2.57h.11c1.17,0,2.12-.78,4.43-3.62,1.54-1.89,3.35-4.06,5.37-6.45,1.99-2.34,3.75-4.21,5.23-5.58l.1-.1c2.06-2.18,4-4.28,5.78-6.24,1.78-1.96,3.03-3.3,3.72-3.98.76-.76,1.57-1.66,2.39-2.67.32-.39.53-.6.65-.7h.75l.59-.89c.23-.35.75-.97,1.93-2.02-.56,1.34-1.35,3.12-2.35,5.3l-5.11,14.2-.04.12c-.38,1.34-.16,2.85.67,4.5.71,1.43,1.61,2.61,2.61,3.48l1.79,1.61c1.92,1.75,4.34,2.06,6.81.86,1.93-.93,3.87-2.37,5.77-4.26,1.68-1.68,3.24-3.13,4.64-4.29l.17-.16c4.01-4.25,7.49-7.73,10.34-10.34,2.79-2.56,5.07-4.43,6.78-5.57.39-.26.73-.47,1.01-.64-.36,1.68-.59,4.1-.7,7.38-.13,4.53.58,8.31,2.12,11.24,1.51,2.9,3.32,5.13,5.36,6.63,2.04,1.5,3.5,2.34,4.6,2.65l.43.07c.72.04,1.43.06,2.15.06,1.43,0,2.85-.08,4.24-.25,2.25-.27,4.42-1.03,6.49-2.27,2.56-1.6,3.78-4.02,3.54-6.99-.3-3.68-2.28-5.41-3.89-6.22Z"/>
  <path class="cls-1" d="M290.05,120.78l-.28-.14c-2.62-1.1-4.54-1.58-6.01-1.5-1.51.08-3.49.89-6.23,2.53l-.11.07c-3.89,2.68-6.24,5.41-7.16,8.33-.7,2.21-.77,5.62,2.92,9.31l.26.22c2.35,1.66,4.59,2.54,6.66,2.62.14,0,.28,0,.43,0,1.85,0,4-.42,6.58-1.28l.26-.11c5.39-2.69,8.42-5.95,9-9.67.61-3.92-1.52-7.41-6.32-10.38Z"/>
</svg>