<?xml version="1.0" encoding="UTF-8"?>
<svg id="_레이어_1" data-name="레이어 1" xmlns="http://www.w3.org/2000/svg" viewBox="0 0 86.41 58.16">
  <defs>
    <style>
      .cls-1 {
        fill: #f5fcff;
      }
    </style>
  </defs>
  <path class="cls-1" d="M20.34,30.36c1.07-.43,2.06-.87,2.9-1.27.96-.39,2.01-.95,3.11-1.67,1.1-.71,2.18-1.52,3.21-2.39,1.03-.87,1.95-1.76,2.74-2.63.81-.9,1.38-1.76,1.67-2.53.4-1.03.56-2.19.47-3.46-.09-1.27-.55-2.54-1.35-3.78-.8-1.23-2.08-2.37-3.81-3.38-1.57-.82-3.26-1.32-5.03-1.48-1.75-.16-3.49-.04-5.2.36l-4.81,1.62c-.57.26-.86.76-.81,1.4.04.54.28,1.05.7,1.51l.15.16h.22c.54,0,.73.19.82.34.2.32.16.51.12.61-1.07,2.31-1.92,4.25-2.55,5.77-.62,1.52-1.22,2.96-1.81,4.36-.24.62-.62,1.54-1.13,2.76-.52,1.23-1.06,2.53-1.63,3.91-.57,1.38-1.07,2.64-1.51,3.76-.44,1.14-.73,1.95-.83,2.36-.18.36-.44.95-.79,1.82-.35.86-.6,1.72-.74,2.56-.57,1.31-.98,2.23-1.22,2.76-.32.7-.37,1.2-.17,1.58.15.27.43.62.94,1.12.67.51,1.47.77,2.37.77.38,0,1.53,0,1.86-.83h0c1.1-2.92,2.08-5.65,2.93-8.1.54-1.56.98-2.88,1.31-3.96l.55,1.3c.38.9.95,1.82,1.71,2.72,1.91,2.18,3.65,3.94,5.18,5.23,1.53,1.29,3.09,2.4,4.6,3.3.86.56,1.67.87,2.4.91.17,0,.33.01.47.01.47,0,.82-.05,1.08-.14.3-.09.53-.39.8-1.01.2-.48.35-1,.45-1.53.12-.69,0-1.19-.35-1.48l-.1-.06c-.94-.47-2.01-1.17-3.18-2.07-1.19-.92-2.33-1.89-3.38-2.89-1.05-1-1.89-1.86-2.51-2.58-.74-.84-1.49-1.82-2.21-2.9-.37-.54-.71-1.1-1.03-1.68.07-.02.15-.03.22-.05,1.01-.31,2.07-.69,3.15-1.13ZM20.86,15.34c.36-.72.44-.98.46-1.13.14-.55.34-.95.58-1.15.22-.18.63-.25,1.21-.2.7.07,1.73.27,3.06.6.36.11.74.37,1.11.75.39.41.72.88.98,1.38.24.48.36.91.36,1.31.06.8-.11,1.54-.53,2.25-.43.74-1.04,1.45-1.81,2.1-.78.67-1.66,1.29-2.62,1.84-.98.57-1.97,1.09-2.92,1.55-1.07.45-2.07.85-3.01,1.21-.72.28-1.4.46-2.03.56.06-.2.24-.67.79-1.79l2.22-4.52c.38-.95.76-1.86,1.15-2.69.39-.84.73-1.54,1-2.09Z"/>
  <path class="cls-1" d="M38.7,26.43c-.7-.58-1.34-.79-1.91-.63-1.05.09-1.21.79-1.23,1.09-.05.17-.16.55-.34,1.14-.21.67-.46,1.46-.77,2.37-.31.91-.62,1.81-.93,2.69-.3.86-.58,1.58-.83,2.16-.11.32-.21.65-.32,1-.14.45-.17.76-.14,1.06-.12.21-.18.46-.19.78-.14.33-.23.75-.26,1.3-.04.58,0,1.18.14,1.77.14.64.38,1.14.72,1.48.52.58,1.14.88,1.8.88.24,0,.5-.04.75-.12.94-.29,1.6-1.22,1.95-2.77.18-.32.32-.72.43-1.22.11-.49.19-.98.26-1.46.08-.56.15-.77.19-.88.13-.44.3-.9.48-1.39.18-.48.34-.85.47-1.12l.05-.14c.06-.39.19-.9.37-1.52.22-.75.37-1.12.47-1.31.4-.88.64-1.55.71-2.05.11-.72-.15-1.2-.41-1.47-.37-.58-.87-1.13-1.48-1.63Z"/>
  <path class="cls-1" d="M42.86,20.76c.67-.82,1.08-1.63,1.22-2.41.14-.79.03-1.57-.35-2.37-.4-.64-1.03-1.14-1.86-1.49-.87-.36-1.59-.38-2.14-.05-.23.08-.43.26-.6.53-.12.19-.21.33-.29.45-.32.54-.62,1.13-.89,1.77-.24.57-.51,1.02-.8,1.34-.18.19-.25.46-.22.95.02.38.14.79.36,1.25.23.47.57.88,1.01,1.2h0c.4.29.87.43,1.42.43.28,0,.58-.04.9-.12.91-.22,1.66-.72,2.24-1.49Z"/>
  <path class="cls-1" d="M70.56,38.03c-.22-.06-.46-.15-.71-.26-.26-.11-.34-.2-.35-.2h0s-.07-.14-.16-.61c-.08-.39-.15-.86-.2-1.39-.05-.55-.1-1.05-.13-1.46,0-1.13-.06-2.05-.19-2.73-.14-.76-.46-1.38-.89-1.76-1.08-1.44-2.33-1.38-3.18-1.08-1.08.38-2.47,1.23-4.23,2.57-.3.21-.6.44-.89.68.08-.29.13-.5.17-.64.07-.33.16-.7.27-1.1.15-.51.12-1.08-.09-1.72-.17-.41-.52-.88-1.07-1.42-.57-.55-1.21-.89-1.89-1.01l-.12-.02-.12.04c-.49.15-1.09.44-1.82.88-.7.42-1.42.91-2.14,1.45-.71.54-1.39,1.07-2,1.59-.35.28-.73.61-1.14.98-.1.09-.19.17-.28.25l1.21-2.89c.1-.27.24-.61.41-1.02.2-.48.28-1.03.24-1.62-.04-.63-.25-1.28-.64-1.93-.43-.73-1.22-1.16-2.26-1.26-.33-.1-.75-.07-1.26.08-.49.14-.93.4-1.32.76-.43.41-.65.95-.64,1.67.03.27.07.62.1,1.04.03.36-.03.75-.16,1.13-.31.7-.57,1.29-.76,1.78-.19.49-.36.92-.5,1.31-.14.39-.27.77-.4,1.16-.12.39-.25.84-.4,1.39-.48,2.23-.81,3.89-.99,4.91-.2,1.16-.16,1.93.07,2.33.2.65.6,1.21,1.18,1.65.58.44,1.24.68,1.99.72.28,0,.51-.14,1.22-1.01.45-.55.96-1.17,1.55-1.86.57-.67,1.08-1.22,1.54-1.64.59-.62,1.14-1.22,1.66-1.79.51-.56.87-.94,1.07-1.15.22-.22.44-.47.68-.76.13-.16.2-.22.19-.23h.23l.15-.22c.08-.12.26-.33.69-.7.04-.04.08-.07.12-.1-.16.41-.43,1.02-.81,1.85l-1.46,4.07c-.11.37-.04.78.19,1.24.2.4.45.74.73.98l.52.46c.53.48,1.19.56,1.87.24.55-.26,1.1-.67,1.64-1.21.49-.49.94-.91,1.38-1.28,1.15-1.22,2.15-2.22,2.98-2.98.8-.74,1.46-1.28,1.96-1.61.19-.13.34-.21.45-.27-.13.48-.2,1.22-.24,2.27-.04,1.29.17,2.37.6,3.2.43.83.94,1.46,1.52,1.88.58.42.99.66,1.3.75l.11.02c.21.01.41.02.62.02.41,0,.81-.02,1.21-.07.64-.08,1.25-.29,1.84-.64.71-.44,1.05-1.11.98-1.94-.08-1.02-.63-1.5-1.17-1.76Z"/>
  <path class="cls-1" d="M83.53,35.26c-.74-.31-1.28-.45-1.7-.43-.42.02-.98.25-1.78.73-1.1.76-1.77,1.53-2.03,2.36-.2.62-.21,1.57.89,2.66.66.47,1.29.72,1.88.74.04,0,.08,0,.12,0,.52,0,1.13-.12,1.87-.36l.07-.03c1.53-.76,2.38-1.68,2.55-2.73.17-1.09-.43-2.07-1.85-2.94Z"/>
</svg>