<?xml version="1.0" encoding="UTF-8"?>
<svg id="_레이어_1" data-name="레이어 1" xmlns="http://www.w3.org/2000/svg" viewBox="0 0 70.15 70.15">
  <defs>
    <style>
      .cls-1 {
        fill: #1e1e21;
      }

      .cls-2 {
        fill: #f5fcff;
      }
    </style>
  </defs>
  <rect class="cls-2" x=".37" y=".37" width="69.41" height="69.41" rx="22.43" ry="22.43"/>
  <path class="cls-1" d="M30.21,16.98c.2.11,1.32,1.37,1.43,1.69,1.93,8.41,2.55,17.19,4.5,25.58.12.5.11,1.1.55,1.45,1.99-2.61,4.06-5.22,5.68-8.1,1.92-3.41,4.63-9,3.6-12.96-.53-2.04-3.83-3.31-4.29-4.26s2.98-2.99,3.77-3.26c3.2-1.11,7.69-.44,8.35,3.45,1.19,7.04-7.05,18.31-11.12,23.85-.89,1.21-6.1,8.18-6.81,8.48s-6.11.71-6.93.58l-5.44-30.55c-.4-.5-5.97-.3-6.99-.15-.5-.36-.13-2.31-.26-2.98,2.93-.87,11.37-4.23,13.96-2.83Z"/>
</svg>