<?xml version="1.0" encoding="UTF-8"?>
<svg id="_레이어_1" data-name="레이어 1" xmlns="http://www.w3.org/2000/svg" viewBox="0 0 96.69 96.53">
  <defs>
    <style>
      .cls-1 {
        fill: #01deb2;
      }
    </style>
  </defs>
  <path class="cls-1" d="M95.95,21.94c-1-13.03-8.48-20.72-21.57-21.57C56.4-.79,37.11.08,19.01.08,8.75,1.54,1.36,9.38.54,19.81-.97,39.01-.07,61.04,0,80.37c2.64,9.26,12.09,14.5,21.34,15.32,13.93,1.23,38.66,1.85,52.75.84,13.98-1,21.79-9.66,22.61-23.44.86-14.5.36-36.8-.74-51.15ZM61.69,36.18c-9.32,3.41-11.83,23.84-22.83,29.37-2.63,1.32-9.68,3.44-12.06,1.26-1.22-1.11-1.29-3.67-.16-4.95,1.49-1.69,5.04-1.04,7.25-1.81,10.93-3.81,12-26.44,26.11-30.88,3.17-1,10.02-2.62,10.36,2.4.27,4.05-5.81,3.56-8.67,4.61Z"/>
</svg>